# xmcd
#
# Track frame offsets:
#	150
#	14322
#	30202
#	47427
#	62622
#	77417
#	89627
#	100967
#	114745
#	129804
#
# Disc length: 1940 seconds
#
# Revision: 0
# Processed by: cddbd v1.4PL0 Copyright (c) Steve Scherf et al.
# Submitted via: dBpowerAMP V4.0
#
DISCID=6c07920a
DTITLE=Kimberly Caldwell - Kimberly Caldwell
DYEAR=1900
DGENRE=Country
TTITLE0=Long Distance Love
TTITLE1=Be Still My Heart
TTITLE2=It Comes and It Goes
TTITLE3=Fall In My Direction
TTITLE4=Little By Little
TTITLE5=Gee Whiz
TTITLE6=I Must Have Been In Love
TTITLE7=Jump Start
TTITLE8=The Night The Moon Turned Blue
TTITLE9=Untrue Love
EXTD=
EXTT0=
EXTT1=
EXTT2=
EXTT3=
EXTT4=
EXTT5=
EXTT6=
EXTT7=
EXTT8=
EXTT9=
PLAYORDER=
